<svg xmlns="http://www.w3.org/2000/svg" viewBox="0 0 48 48" aria-hidden="true">
  <path fill="#EA4335" d="M24 9.5c3.2 0 6.1 1.1 8.3 3.3l5.6-5.6C34.5 3.4 29.6 1.5 24 1.5 14.8 1.5 6.9 6.8 3.2 14.5l6.7 5.2C11.6 13.8 17.4 9.5 24 9.5z"/>
  <path fill="#4285F4" d="M46.1 24.5c0-1.6-.1-2.8-.4-4.1H24v7.7h12.5c-.5 2.7-2.1 5.1-4.6 6.6l7 5.4c4.1-3.8 6.2-9.3 6.2-15.6z"/>
  <path fill="#FBBC05" d="M9.9 28.5c-.5-1.5-.8-3.1-.8-4.7s.3-3.2.8-4.7l-6.7-5.2C1.4 16.5.4 20.1.4 23.8s1 7.3 2.8 10.4l6.7-5.7z"/>
  <path fill="#34A853" d="M24 46.5c5.6 0 10.3-1.9 13.7-5.1l-7-5.4c-1.9 1.3-4.4 2.1-6.7 2.1-6.6 0-12.4-4.3-14.1-10.2l-6.7 5.7C6.9 41.2 14.8 46.5 24 46.5z"/>
</svg>
